<svg width="29" height="29" viewBox="0 0 29 29" fill="none" xmlns="http://www.w3.org/2000/svg">
<path d="M13.5001 2.4165C6.84095 2.4165 1.41675 7.84071 1.41675 14.4998C1.41675 21.159 6.84095 26.5832 13.5001 26.5832C20.1592 26.5832 25.5834 21.159 25.5834 14.4998C25.5834 7.84071 20.1592 2.4165 13.5001 2.4165ZM13.5001 4.83317C18.8531 4.83317 23.1667 9.14677 23.1667 14.4998C23.1667 19.8529 18.8531 24.1665 13.5001 24.1665C8.14702 24.1665 3.83341 19.8529 3.83341 14.4998C3.83341 9.14677 8.14702 4.83317 13.5001 4.83317ZM12.2917 8.45817V13.2915H7.45842V15.7082H12.2917V20.5415H14.7084V15.7082H19.5417V13.2915H14.7084V8.45817H12.2917Z" fill="#623329"/>
</svg>
