<svg width="29" height="29" viewBox="0 0 29 29" fill="none" xmlns="http://www.w3.org/2000/svg">
<path d="M23.1275 15.6357C23.1758 15.2732 23.2 14.8987 23.2 14.4999C23.2 14.1132 23.1758 13.7266 23.1154 13.3641L25.5683 11.4549C25.7858 11.2857 25.8462 10.9595 25.7133 10.7178L23.3933 6.70615C23.2483 6.44032 22.9462 6.35574 22.6804 6.44032L19.7925 7.60032C19.1883 7.14115 18.5479 6.75449 17.835 6.46449L17.4 3.39532C17.3516 3.10532 17.11 2.8999 16.82 2.8999H12.18C11.89 2.8999 11.6604 3.10532 11.6121 3.39532L11.1771 6.46449C10.4641 6.75449 9.81164 7.15324 9.21955 7.60032L6.33164 6.44032C6.0658 6.34365 5.76372 6.44032 5.61872 6.70615L3.3108 10.7178C3.1658 10.9716 3.21414 11.2857 3.4558 11.4549L5.90872 13.3641C5.8483 13.7266 5.79997 14.1253 5.79997 14.4999C5.79997 14.8745 5.82414 15.2732 5.88455 15.6357L3.43164 17.5449C3.21414 17.7141 3.15372 18.0403 3.28664 18.282L5.60664 22.2937C5.75164 22.5595 6.05372 22.6441 6.31955 22.5595L9.20747 21.3995C9.81164 21.8587 10.4521 22.2453 11.165 22.5353L11.6 25.6045C11.6604 25.8945 11.89 26.0999 12.18 26.0999H16.82C17.11 26.0999 17.3516 25.8945 17.3879 25.6045L17.8229 22.5353C18.5358 22.2453 19.1883 21.8587 19.7804 21.3995L22.6683 22.5595C22.9341 22.6562 23.2362 22.5595 23.3812 22.2937L25.7012 18.282C25.8462 18.0162 25.7858 17.7141 25.5562 17.5449L23.1275 15.6357ZM14.5 18.8499C12.1075 18.8499 10.15 16.8924 10.15 14.4999C10.15 12.1074 12.1075 10.1499 14.5 10.1499C16.8925 10.1499 18.85 12.1074 18.85 14.4999C18.85 16.8924 16.8925 18.8499 14.5 18.8499Z" fill="#EAC3AE"/>
</svg>
