<svg width="29" height="29" viewBox="0 0 29 29" fill="none" xmlns="http://www.w3.org/2000/svg">
<path d="M20.5417 2.4165H8.45842C7.12925 2.4165 6.04175 3.504 6.04175 4.83317V7.24984C6.04175 8.579 7.12925 9.6665 8.45842 9.6665H20.5417C21.8709 9.6665 22.9584 8.579 22.9584 7.24984V4.83317C22.9584 3.504 21.8709 2.4165 20.5417 2.4165ZM20.5417 7.24984H8.45842V4.83317H20.5417V7.24984ZM24.1667 26.5832H4.83341C3.50425 26.5832 2.41675 25.4957 2.41675 24.1665V22.9582H26.5834V24.1665C26.5834 25.4957 25.4959 26.5832 24.1667 26.5832ZM22.3905 12.3128C22.0038 11.4428 21.1338 10.8748 20.1792 10.8748H8.82092C7.86633 10.8748 6.99633 11.4428 6.60966 12.3128L2.41675 21.7498H26.5834L22.3905 12.3128ZM11.4792 19.3332H10.2709C9.93258 19.3332 9.66675 19.0673 9.66675 18.729C9.66675 18.3907 9.93258 18.1248 10.2709 18.1248H11.4792C11.8176 18.1248 12.0834 18.3907 12.0834 18.729C12.0834 19.0673 11.8176 19.3332 11.4792 19.3332ZM11.4792 16.9165H10.2709C9.93258 16.9165 9.66675 16.6507 9.66675 16.3123C9.66675 15.974 9.93258 15.7082 10.2709 15.7082H11.4792C11.8176 15.7082 12.0834 15.974 12.0834 16.3123C12.0834 16.6507 11.8176 16.9165 11.4792 16.9165ZM11.4792 14.4998H10.2709C9.93258 14.4998 9.66675 14.234 9.66675 13.8957C9.66675 13.5573 9.93258 13.2915 10.2709 13.2915H11.4792C11.8176 13.2915 12.0834 13.5573 12.0834 13.8957C12.0834 14.234 11.8176 14.4998 11.4792 14.4998ZM15.1042 19.3332H13.8959C13.5576 19.3332 13.2917 19.0673 13.2917 18.729C13.2917 18.3907 13.5576 18.1248 13.8959 18.1248H15.1042C15.4426 18.1248 15.7084 18.3907 15.7084 18.729C15.7084 19.0673 15.4426 19.3332 15.1042 19.3332ZM15.1042 16.9165H13.8959C13.5576 16.9165 13.2917 16.6507 13.2917 16.3123C13.2917 15.974 13.5576 15.7082 13.8959 15.7082H15.1042C15.4426 15.7082 15.7084 15.974 15.7084 16.3123C15.7084 16.6507 15.4426 16.9165 15.1042 16.9165ZM15.1042 14.4998H13.8959C13.5576 14.4998 13.2917 14.234 13.2917 13.8957C13.2917 13.5573 13.5576 13.2915 13.8959 13.2915H15.1042C15.4426 13.2915 15.7084 13.5573 15.7084 13.8957C15.7084 14.234 15.4426 14.4998 15.1042 14.4998ZM18.7292 19.3332H17.5209C17.1826 19.3332 16.9167 19.0673 16.9167 18.729C16.9167 18.3907 17.1826 18.1248 17.5209 18.1248H18.7292C19.0676 18.1248 19.3334 18.3907 19.3334 18.729C19.3334 19.0673 19.0676 19.3332 18.7292 19.3332ZM18.7292 16.9165H17.5209C17.1826 16.9165 16.9167 16.6507 16.9167 16.3123C16.9167 15.974 17.1826 15.7082 17.5209 15.7082H18.7292C19.0676 15.7082 19.3334 15.974 19.3334 16.3123C19.3334 16.6507 19.0676 16.9165 18.7292 16.9165ZM18.7292 14.4998H17.5209C17.1826 14.4998 16.9167 14.234 16.9167 13.8957C16.9167 13.5573 17.1826 13.2915 17.5209 13.2915H18.7292C19.0676 13.2915 19.3334 13.5573 19.3334 13.8957C19.3334 14.234 19.0676 14.4998 18.7292 14.4998Z" fill="#EAC3AE"/>
</svg>
